<?xml version="1.0" encoding="utf-8"?>
<svg viewBox="29.671 147.822 290.543 179.812" xmlns="http://www.w3.org/2000/svg">
  <path d="M 47.831 316.396 L 47.831 147.822 L 29.671 147.822 L 29.671 327.634 L 320.214 327.634 L 320.214 316.396 L 47.831 316.396 Z" style="fill: rgb(255, 255, 255);"/>
  <path d="M 183.347 242.694 L 128.931 209.234 L 56.376 253.846 L 56.376 276.152 L 128.931 231.541 L 183.347 265 L 310.318 186.931 L 310.318 164.625 L 183.347 242.694 Z" style="fill: rgb(255, 255, 255);"/>
  <path d="M 95.455 174.658 L 92.752 174.658 L 91.807 170.502 L 91.807 174.658 L 89.346 174.658 L 89.346 163.455 L 91.807 163.455 L 91.807 167.189 L 92.885 163.455 L 95.166 163.455 L 93.65 168.564 Z M 95.773 171.01 L 97.991 171.01 L 97.991 172.931 Q 97.991 173.392 98.366 173.392 Q 98.741 173.392 98.741 172.51 Q 98.741 171.361 98.28 171.025 Q 96.538 170.111 96.179 169.748 Q 95.819 169.385 95.819 168.658 L 95.819 167.439 Q 95.819 165.525 98.413 165.525 Q 100.937 165.525 100.937 167.361 L 100.937 169.15 L 98.765 169.15 L 98.812 168.064 Q 98.812 166.931 98.398 166.931 Q 97.984 166.931 97.984 167.642 Q 97.984 168.377 98.167 168.752 Q 98.351 169.127 100.21 170.041 Q 100.984 170.596 100.984 171.51 L 100.984 172.869 Q 100.984 174.783 98.351 174.783 Q 95.773 174.783 95.773 172.947 Z M 103.631 165.088 L 101.405 165.088 L 101.405 163.455 L 103.631 163.455 Z M 103.631 174.658 L 101.405 174.658 L 101.405 165.588 L 103.631 165.588 Z M 109.313 170.814 L 106.321 170.814 L 106.321 172.931 Q 106.321 173.392 106.711 173.392 Q 107.094 173.392 107.094 172.931 L 107.094 171.103 L 109.313 171.103 L 109.313 172.947 Q 109.313 174.783 106.696 174.783 Q 104.102 174.783 104.102 172.869 L 104.102 167.439 Q 104.102 165.525 106.696 165.525 Q 109.313 165.525 109.313 167.361 Z M 107.094 169.455 L 107.094 167.377 Q 107.094 166.931 106.711 166.931 Q 106.321 166.931 106.321 167.377 L 106.321 169.455 Z M 108.266 176.283 Q 107.883 176.588 107.039 176.588 Q 106.672 176.588 106.414 176.26 Q 106.156 175.931 106.156 175.556 Q 106.156 175.033 106.578 174.658 L 107.656 174.658 Q 107.313 174.9 107.313 175.4 Q 107.313 175.924 107.711 175.924 Q 108.047 175.924 108.266 175.744 Z M 110.202 176.58 L 110.202 175.267 L 112.007 175.267 Q 112.796 175.267 112.796 174.447 Q 112.358 174.783 111.421 174.783 Q 110.765 174.783 110.284 174.435 Q 109.804 174.088 109.804 173.525 L 109.804 167.01 Q 109.804 165.525 111.577 165.525 Q 112.046 165.525 112.811 165.924 L 113.1 165.588 L 115.015 165.588 L 115.015 174.533 Q 115.015 175.416 114.667 175.998 Q 114.319 176.58 112.507 176.58 Z M 112.796 173.041 L 112.796 167.346 Q 112.796 166.931 112.413 166.931 Q 112.022 166.931 112.022 167.346 L 112.022 173.025 Q 112.022 173.439 112.413 173.439 Q 112.796 173.439 112.796 173.041 Z M 115.457 172.869 L 115.457 167.439 Q 115.457 165.525 118.106 165.525 Q 119.129 165.525 119.907 165.971 Q 120.684 166.416 120.684 167.361 L 120.684 172.947 Q 120.684 174.783 118.106 174.783 Q 115.457 174.783 115.457 172.869 Z M 118.457 172.931 L 118.457 167.377 Q 118.457 166.931 118.075 166.931 Q 117.684 166.931 117.684 167.377 L 117.684 172.931 Q 117.684 173.392 118.075 173.392 Q 118.457 173.392 118.457 172.931 Z M 130.389 165.588 L 128.834 174.658 L 126.389 174.658 L 125.693 170.947 L 125.06 174.658 L 122.498 174.658 L 120.943 165.588 L 123.092 165.588 L 123.857 170.517 L 124.545 165.588 L 126.787 165.588 L 127.474 170.517 L 128.24 165.588 Z M 135.942 174.658 L 133.974 174.658 L 133.974 174.306 Q 133.724 174.783 132.544 174.783 Q 130.724 174.783 130.724 173.361 L 130.724 171.541 Q 130.724 170.931 131.165 170.478 Q 131.606 170.025 132.942 169.346 Q 133.716 168.955 133.716 168.721 L 133.716 167.377 Q 133.716 166.931 133.333 166.931 Q 132.895 166.931 132.895 168.017 Q 132.895 168.213 132.919 168.596 Q 132.95 168.978 132.95 169.174 L 130.802 169.174 L 130.802 167.361 Q 130.802 165.525 133.458 165.525 Q 135.942 165.525 135.942 167.439 Z M 133.716 172.963 L 133.716 170.627 Q 132.95 170.814 132.95 171.314 L 132.95 172.963 Q 132.95 173.377 133.349 173.377 Q 133.716 173.377 133.716 172.963 Z" transform="matrix(4.009729, 0, 0, 3.422174, -301.170105, -399.371246)" style="fill: rgb(255, 255, 255);"/>
  <path d="M 176.505 283.676 L 173.802 283.676 L 172.857 279.52 L 172.857 283.676 L 170.396 283.676 L 170.396 272.473 L 172.857 272.473 L 172.857 276.207 L 173.935 272.473 L 176.216 272.473 L 174.7 277.582 Z M 182.082 283.676 L 180.113 283.676 L 180.113 283.324 Q 179.863 283.801 178.683 283.801 Q 176.863 283.801 176.863 282.379 L 176.863 280.559 Q 176.863 279.949 177.304 279.496 Q 177.746 279.043 179.082 278.363 Q 179.855 277.973 179.855 277.738 L 179.855 276.395 Q 179.855 275.949 179.472 275.949 Q 179.035 275.949 179.035 277.035 Q 179.035 277.231 179.058 277.613 Q 179.089 277.996 179.089 278.192 L 176.941 278.192 L 176.941 276.379 Q 176.941 274.543 179.597 274.543 Q 182.082 274.543 182.082 276.457 Z M 179.855 281.981 L 179.855 279.645 Q 179.089 279.832 179.089 280.332 L 179.089 281.981 Q 179.089 282.395 179.488 282.395 Q 179.855 282.395 179.855 281.981 Z M 187.009 283.676 L 185.603 283.676 Q 184.095 283.676 183.798 283.223 Q 183.501 282.77 183.501 281.481 L 183.501 275.949 L 182.509 275.949 L 182.509 274.606 L 183.501 274.606 L 183.501 272.778 L 185.728 272.778 L 185.728 274.606 L 186.931 274.606 L 186.931 275.949 L 185.728 275.949 L 185.728 281.465 Q 185.728 281.863 185.966 282 Q 186.204 282.137 187.009 282.137 Z M 192.679 283.676 L 190.71 283.676 L 190.71 283.324 Q 190.46 283.801 189.28 283.801 Q 187.46 283.801 187.46 282.379 L 187.46 280.559 Q 187.46 279.949 187.901 279.496 Q 188.343 279.043 189.679 278.363 Q 190.452 277.973 190.452 277.738 L 190.452 276.395 Q 190.452 275.949 190.069 275.949 Q 189.632 275.949 189.632 277.035 Q 189.632 277.231 189.655 277.613 Q 189.687 277.996 189.687 278.192 L 187.538 278.192 L 187.538 276.379 Q 187.538 274.543 190.194 274.543 Q 192.679 274.543 192.679 276.457 Z M 190.452 281.981 L 190.452 279.645 Q 189.687 279.832 189.687 280.332 L 189.687 281.981 Q 189.687 282.395 190.085 282.395 Q 190.452 282.395 190.452 281.981 Z M 198.478 278.363 L 196.251 278.363 L 196.251 276.395 Q 196.251 275.981 195.868 275.981 Q 195.485 275.981 195.485 276.379 L 195.485 283.676 L 193.259 283.676 L 193.259 274.606 L 195.485 274.606 L 195.485 274.91 Q 195.931 274.543 196.86 274.543 Q 197.524 274.543 198.001 274.899 Q 198.478 275.254 198.478 275.832 Z M 204.201 283.676 L 198.857 283.676 L 198.857 282.426 L 201.38 276.059 L 198.997 276.059 L 198.997 274.606 L 203.958 274.606 L 203.958 275.832 L 201.396 282.238 L 204.201 282.238 Z M 210.459 274.606 L 208.732 283.629 Q 208.467 285.012 208.018 285.305 Q 207.568 285.598 206.772 285.598 L 205.217 285.598 L 205.217 284.379 Q 206.092 284.379 206.303 284.293 Q 206.514 284.207 206.514 283.785 Q 206.514 283.363 205.553 279.387 L 204.397 274.606 L 206.623 274.606 L 207.553 279.403 L 208.287 274.606 Z M 215.98 283.676 L 213.753 283.676 L 213.753 276.395 Q 213.753 275.981 213.37 275.981 Q 212.987 275.981 212.987 276.379 L 212.987 283.676 L 210.761 283.676 L 210.761 274.606 L 212.987 274.606 L 212.987 274.91 Q 213.433 274.543 214.362 274.543 Q 214.964 274.543 215.472 274.871 Q 215.98 275.199 215.98 275.832 Z M 221.715 283.676 L 219.746 283.676 L 219.746 283.324 Q 219.496 283.801 218.316 283.801 Q 216.496 283.801 216.496 282.379 L 216.496 280.559 Q 216.496 279.949 216.937 279.496 Q 217.379 279.043 218.715 278.363 Q 219.488 277.973 219.488 277.738 L 219.488 276.395 Q 219.488 275.949 219.105 275.949 Q 218.668 275.949 218.668 277.035 Q 218.668 277.231 218.691 277.613 Q 218.722 277.996 218.722 278.192 L 216.574 278.192 L 216.574 276.379 Q 216.574 274.543 219.23 274.543 Q 221.715 274.543 221.715 276.457 Z M 219.488 281.981 L 219.488 279.645 Q 218.722 279.832 218.722 280.332 L 218.722 281.981 Q 218.722 282.395 219.121 282.395 Q 219.488 282.395 219.488 281.981 Z" transform="matrix(3.7507, 0, 0, 3.722323, -529.726685, -751.744934)" style="fill: rgb(255, 255, 255);"/>
</svg>